<mxfile host="Electron" modified="2023-12-29T17:38:51.863Z" agent="Mozilla/5.0 (Macintosh; Intel Mac OS X 10_15_7) AppleWebKit/537.36 (KHTML, like Gecko) draw.io/22.1.16 Chrome/120.0.6099.109 Electron/28.1.0 Safari/537.36" etag="THmIKOArkjbY3L9CpyOI" version="22.1.16" type="device">
  <diagram name="Page-1" id="UURZ7w3Wwhp8sGtWjBuk">
    <mxGraphModel dx="1224" dy="783" grid="1" gridSize="10" guides="1" tooltips="1" connect="1" arrows="1" fold="1" page="1" pageScale="1" pageWidth="827" pageHeight="1169" math="0" shadow="0">
      <root>
        <mxCell id="0" />
        <mxCell id="1" parent="0" />
        <mxCell id="CWdAIW-hj66Mh17srR9W-8" style="edgeStyle=orthogonalEdgeStyle;rounded=0;orthogonalLoop=1;jettySize=auto;html=1;exitX=0.5;exitY=1;exitDx=0;exitDy=0;entryX=0.5;entryY=0;entryDx=0;entryDy=0;" edge="1" parent="1" source="CWdAIW-hj66Mh17srR9W-5" target="CWdAIW-hj66Mh17srR9W-6">
          <mxGeometry relative="1" as="geometry" />
        </mxCell>
        <mxCell id="CWdAIW-hj66Mh17srR9W-5" value="Debugger starts" style="rounded=0;whiteSpace=wrap;html=1;" vertex="1" parent="1">
          <mxGeometry x="320" y="140" width="120" height="60" as="geometry" />
        </mxCell>
        <mxCell id="CWdAIW-hj66Mh17srR9W-6" value="Loads breakpoints" style="rounded=0;whiteSpace=wrap;html=1;" vertex="1" parent="1">
          <mxGeometry x="320" y="220" width="120" height="60" as="geometry" />
        </mxCell>
        <mxCell id="CWdAIW-hj66Mh17srR9W-9" value="Is VICE attached" style="rhombus;whiteSpace=wrap;html=1;" vertex="1" parent="1">
          <mxGeometry x="305" y="460" width="150" height="80" as="geometry" />
        </mxCell>
        <mxCell id="CWdAIW-hj66Mh17srR9W-14" value="NO" style="endArrow=classic;html=1;rounded=0;exitX=0;exitY=0.5;exitDx=0;exitDy=0;entryX=1;entryY=0.5;entryDx=0;entryDy=0;" edge="1" parent="1" source="CWdAIW-hj66Mh17srR9W-9" target="CWdAIW-hj66Mh17srR9W-19">
          <mxGeometry width="50" height="50" relative="1" as="geometry">
            <mxPoint x="440" y="580" as="sourcePoint" />
            <mxPoint x="190" y="525" as="targetPoint" />
            <Array as="points" />
          </mxGeometry>
        </mxCell>
        <mxCell id="CWdAIW-hj66Mh17srR9W-17" value="" style="endArrow=classic;html=1;rounded=0;exitX=0.5;exitY=1;exitDx=0;exitDy=0;entryX=0.5;entryY=0;entryDx=0;entryDy=0;align=left;" edge="1" parent="1" source="CWdAIW-hj66Mh17srR9W-19" target="CWdAIW-hj66Mh17srR9W-20">
          <mxGeometry width="50" height="50" relative="1" as="geometry">
            <mxPoint x="145" y="570" as="sourcePoint" />
            <mxPoint x="380" y="550" as="targetPoint" />
            <Array as="points">
              <mxPoint x="160" y="560" />
              <mxPoint x="380" y="560" />
            </Array>
          </mxGeometry>
        </mxCell>
        <mxCell id="CWdAIW-hj66Mh17srR9W-18" value="YES" style="endArrow=classic;html=1;rounded=0;exitX=0.5;exitY=1;exitDx=0;exitDy=0;entryX=0.5;entryY=0;entryDx=0;entryDy=0;" edge="1" parent="1" source="CWdAIW-hj66Mh17srR9W-9" target="CWdAIW-hj66Mh17srR9W-20">
          <mxGeometry x="-0.5" y="20" width="50" height="50" relative="1" as="geometry">
            <mxPoint x="330" y="550" as="sourcePoint" />
            <mxPoint x="380" y="580" as="targetPoint" />
            <mxPoint as="offset" />
          </mxGeometry>
        </mxCell>
        <mxCell id="CWdAIW-hj66Mh17srR9W-19" value="&lt;span style=&quot;color: rgb(240, 240, 240); font-family: Helvetica; font-size: 12px; font-style: normal; font-variant-ligatures: normal; font-variant-caps: normal; font-weight: 400; letter-spacing: normal; orphans: 2; text-align: center; text-indent: 0px; text-transform: none; widows: 2; word-spacing: 0px; -webkit-text-stroke-width: 0px; background-color: rgb(27, 29, 30); text-decoration-thickness: initial; text-decoration-style: initial; text-decoration-color: initial; float: none; display: inline !important;&quot;&gt;Start VICE and&amp;nbsp;attach&lt;/span&gt;" style="rounded=0;whiteSpace=wrap;html=1;" vertex="1" parent="1">
          <mxGeometry x="100" y="470" width="120" height="60" as="geometry" />
        </mxCell>
        <mxCell id="CWdAIW-hj66Mh17srR9W-21" value="" style="edgeStyle=orthogonalEdgeStyle;rounded=0;orthogonalLoop=1;jettySize=auto;html=1;" edge="1" parent="1" source="CWdAIW-hj66Mh17srR9W-9" target="CWdAIW-hj66Mh17srR9W-20">
          <mxGeometry relative="1" as="geometry" />
        </mxCell>
        <mxCell id="CWdAIW-hj66Mh17srR9W-20" value="Has pdb changed (including cool start)" style="rhombus;whiteSpace=wrap;html=1;" vertex="1" parent="1">
          <mxGeometry x="310" y="580" width="140" height="80" as="geometry" />
        </mxCell>
        <mxCell id="CWdAIW-hj66Mh17srR9W-23" value="Re-ARM" style="rounded=0;whiteSpace=wrap;html=1;" vertex="1" parent="1">
          <mxGeometry x="510" y="590" width="120" height="60" as="geometry" />
        </mxCell>
        <mxCell id="CWdAIW-hj66Mh17srR9W-24" value="YES" style="endArrow=classic;html=1;rounded=0;exitX=1;exitY=0.5;exitDx=0;exitDy=0;entryX=0;entryY=0.5;entryDx=0;entryDy=0;" edge="1" parent="1" source="CWdAIW-hj66Mh17srR9W-20" target="CWdAIW-hj66Mh17srR9W-23">
          <mxGeometry width="50" height="50" relative="1" as="geometry">
            <mxPoint x="440" y="580" as="sourcePoint" />
            <mxPoint x="490" y="530" as="targetPoint" />
          </mxGeometry>
        </mxCell>
        <mxCell id="CWdAIW-hj66Mh17srR9W-25" value="Start debugging" style="rounded=0;whiteSpace=wrap;html=1;" vertex="1" parent="1">
          <mxGeometry x="320" y="720" width="120" height="60" as="geometry" />
        </mxCell>
        <mxCell id="CWdAIW-hj66Mh17srR9W-26" value="NO" style="endArrow=classic;html=1;rounded=0;exitX=0.5;exitY=1;exitDx=0;exitDy=0;" edge="1" parent="1" source="CWdAIW-hj66Mh17srR9W-20" target="CWdAIW-hj66Mh17srR9W-25">
          <mxGeometry width="50" height="50" relative="1" as="geometry">
            <mxPoint x="440" y="580" as="sourcePoint" />
            <mxPoint x="490" y="530" as="targetPoint" />
          </mxGeometry>
        </mxCell>
        <mxCell id="CWdAIW-hj66Mh17srR9W-27" value="" style="endArrow=classic;html=1;rounded=0;exitX=0.5;exitY=1;exitDx=0;exitDy=0;entryX=0.5;entryY=0;entryDx=0;entryDy=0;" edge="1" parent="1" source="CWdAIW-hj66Mh17srR9W-23" target="CWdAIW-hj66Mh17srR9W-25">
          <mxGeometry width="50" height="50" relative="1" as="geometry">
            <mxPoint x="440" y="580" as="sourcePoint" />
            <mxPoint x="490" y="530" as="targetPoint" />
            <Array as="points">
              <mxPoint x="570" y="700" />
              <mxPoint x="380" y="700" />
            </Array>
          </mxGeometry>
        </mxCell>
        <mxCell id="CWdAIW-hj66Mh17srR9W-28" value="Run" style="rhombus;whiteSpace=wrap;html=1;" vertex="1" parent="1">
          <mxGeometry x="305" y="310" width="150" height="80" as="geometry" />
        </mxCell>
        <mxCell id="CWdAIW-hj66Mh17srR9W-29" value="" style="endArrow=classic;html=1;rounded=0;exitX=0.5;exitY=1;exitDx=0;exitDy=0;" edge="1" parent="1" source="CWdAIW-hj66Mh17srR9W-6" target="CWdAIW-hj66Mh17srR9W-28">
          <mxGeometry width="50" height="50" relative="1" as="geometry">
            <mxPoint x="440" y="430" as="sourcePoint" />
            <mxPoint x="490" y="380" as="targetPoint" />
          </mxGeometry>
        </mxCell>
        <mxCell id="CWdAIW-hj66Mh17srR9W-30" value="YES" style="endArrow=classic;html=1;rounded=0;exitX=0.5;exitY=1;exitDx=0;exitDy=0;entryX=0.5;entryY=0;entryDx=0;entryDy=0;" edge="1" parent="1" source="CWdAIW-hj66Mh17srR9W-28" target="CWdAIW-hj66Mh17srR9W-9">
          <mxGeometry width="50" height="50" relative="1" as="geometry">
            <mxPoint x="440" y="430" as="sourcePoint" />
            <mxPoint x="490" y="380" as="targetPoint" />
          </mxGeometry>
        </mxCell>
        <mxCell id="CWdAIW-hj66Mh17srR9W-31" value="Edit breakpoint" style="rounded=0;whiteSpace=wrap;html=1;" vertex="1" parent="1">
          <mxGeometry x="520" y="320" width="120" height="60" as="geometry" />
        </mxCell>
        <mxCell id="CWdAIW-hj66Mh17srR9W-32" value="NO" style="endArrow=classic;html=1;rounded=0;exitX=1;exitY=0.5;exitDx=0;exitDy=0;entryX=0;entryY=0.5;entryDx=0;entryDy=0;" edge="1" parent="1" source="CWdAIW-hj66Mh17srR9W-28" target="CWdAIW-hj66Mh17srR9W-31">
          <mxGeometry width="50" height="50" relative="1" as="geometry">
            <mxPoint x="440" y="430" as="sourcePoint" />
            <mxPoint x="490" y="380" as="targetPoint" />
          </mxGeometry>
        </mxCell>
        <mxCell id="CWdAIW-hj66Mh17srR9W-33" value="" style="endArrow=classic;html=1;rounded=0;exitX=0.5;exitY=0;exitDx=0;exitDy=0;entryX=0.5;entryY=0;entryDx=0;entryDy=0;" edge="1" parent="1" source="CWdAIW-hj66Mh17srR9W-31" target="CWdAIW-hj66Mh17srR9W-28">
          <mxGeometry width="50" height="50" relative="1" as="geometry">
            <mxPoint x="440" y="430" as="sourcePoint" />
            <mxPoint x="380" y="290" as="targetPoint" />
            <Array as="points">
              <mxPoint x="580" y="290" />
              <mxPoint x="380" y="290" />
            </Array>
          </mxGeometry>
        </mxCell>
        <mxCell id="CWdAIW-hj66Mh17srR9W-34" value="Edit breakpoint" style="rounded=0;whiteSpace=wrap;html=1;" vertex="1" parent="1">
          <mxGeometry x="320" y="810" width="120" height="60" as="geometry" />
        </mxCell>
        <mxCell id="CWdAIW-hj66Mh17srR9W-35" value="" style="endArrow=classic;html=1;rounded=0;exitX=0.5;exitY=1;exitDx=0;exitDy=0;" edge="1" parent="1" source="CWdAIW-hj66Mh17srR9W-25" target="CWdAIW-hj66Mh17srR9W-34">
          <mxGeometry width="50" height="50" relative="1" as="geometry">
            <mxPoint x="440" y="560" as="sourcePoint" />
            <mxPoint x="490" y="510" as="targetPoint" />
          </mxGeometry>
        </mxCell>
        <mxCell id="CWdAIW-hj66Mh17srR9W-36" value="Re-ARM" style="rounded=0;whiteSpace=wrap;html=1;" vertex="1" parent="1">
          <mxGeometry x="510" y="810" width="120" height="60" as="geometry" />
        </mxCell>
        <mxCell id="CWdAIW-hj66Mh17srR9W-37" value="" style="endArrow=classic;html=1;rounded=0;exitX=1;exitY=0.5;exitDx=0;exitDy=0;entryX=0;entryY=0.5;entryDx=0;entryDy=0;" edge="1" parent="1" source="CWdAIW-hj66Mh17srR9W-34" target="CWdAIW-hj66Mh17srR9W-36">
          <mxGeometry width="50" height="50" relative="1" as="geometry">
            <mxPoint x="440" y="870" as="sourcePoint" />
            <mxPoint x="490" y="820" as="targetPoint" />
          </mxGeometry>
        </mxCell>
        <mxCell id="CWdAIW-hj66Mh17srR9W-38" value="" style="endArrow=classic;html=1;rounded=0;exitX=0.5;exitY=0;exitDx=0;exitDy=0;entryX=0.5;entryY=0;entryDx=0;entryDy=0;" edge="1" parent="1" source="CWdAIW-hj66Mh17srR9W-36" target="CWdAIW-hj66Mh17srR9W-34">
          <mxGeometry width="50" height="50" relative="1" as="geometry">
            <mxPoint x="440" y="870" as="sourcePoint" />
            <mxPoint x="490" y="820" as="targetPoint" />
            <Array as="points">
              <mxPoint x="570" y="790" />
              <mxPoint x="380" y="790" />
            </Array>
          </mxGeometry>
        </mxCell>
        <mxCell id="CWdAIW-hj66Mh17srR9W-39" value="Stop" style="rounded=0;whiteSpace=wrap;html=1;" vertex="1" parent="1">
          <mxGeometry x="320" y="900" width="120" height="60" as="geometry" />
        </mxCell>
        <mxCell id="CWdAIW-hj66Mh17srR9W-40" value="" style="endArrow=classic;html=1;rounded=0;exitX=0.5;exitY=1;exitDx=0;exitDy=0;entryX=0.5;entryY=0;entryDx=0;entryDy=0;" edge="1" parent="1" source="CWdAIW-hj66Mh17srR9W-34" target="CWdAIW-hj66Mh17srR9W-39">
          <mxGeometry width="50" height="50" relative="1" as="geometry">
            <mxPoint x="440" y="610" as="sourcePoint" />
            <mxPoint x="490" y="560" as="targetPoint" />
          </mxGeometry>
        </mxCell>
        <mxCell id="CWdAIW-hj66Mh17srR9W-41" value="" style="endArrow=classic;html=1;rounded=0;exitX=0;exitY=0.5;exitDx=0;exitDy=0;entryX=0.5;entryY=0;entryDx=0;entryDy=0;" edge="1" parent="1" source="CWdAIW-hj66Mh17srR9W-42" target="CWdAIW-hj66Mh17srR9W-28">
          <mxGeometry width="50" height="50" relative="1" as="geometry">
            <mxPoint x="440" y="610" as="sourcePoint" />
            <mxPoint x="490" y="560" as="targetPoint" />
            <Array as="points">
              <mxPoint x="70" y="930" />
              <mxPoint x="80" y="290" />
              <mxPoint x="380" y="290" />
            </Array>
          </mxGeometry>
        </mxCell>
        <mxCell id="CWdAIW-hj66Mh17srR9W-42" value="Clear?" style="rounded=0;whiteSpace=wrap;html=1;" vertex="1" parent="1">
          <mxGeometry x="140" y="900" width="120" height="60" as="geometry" />
        </mxCell>
        <mxCell id="CWdAIW-hj66Mh17srR9W-43" value="" style="endArrow=classic;html=1;rounded=0;exitX=0;exitY=0.5;exitDx=0;exitDy=0;entryX=1;entryY=0.5;entryDx=0;entryDy=0;" edge="1" parent="1" source="CWdAIW-hj66Mh17srR9W-39" target="CWdAIW-hj66Mh17srR9W-42">
          <mxGeometry width="50" height="50" relative="1" as="geometry">
            <mxPoint x="260" y="870" as="sourcePoint" />
            <mxPoint x="310" y="820" as="targetPoint" />
          </mxGeometry>
        </mxCell>
      </root>
    </mxGraphModel>
  </diagram>
</mxfile>
